<svg width="206" height="42" viewBox="0 0 206 42" fill="none" xmlns="http://www.w3.org/2000/svg">
<g id="ddroidd_logo 1" clip-path="url(#clip0_1_9)">
<g id="Group 91">
<g id="Clip path group">
<mask id="mask0_1_9" style="mask-type:luminance" maskUnits="userSpaceOnUse" x="0" y="0" width="206" height="42">
<g id="clip-path">
<path id="Path 56" d="M0 42H206V0H0V42Z" fill="white"/>
</g>
</mask>
<g mask="url(#mask0_1_9)">
<g id="Group 90">
<g id="Group 87">
<path id="Path 53" d="M191.922 20.696C191.152 20.6615 190.383 20.7851 189.663 21.0592C188.943 21.3332 188.287 21.7518 187.737 22.2888C186.58 23.6321 186.005 25.3768 186.138 27.1408C186.061 28.5335 186.494 29.9069 187.356 31.0065C187.79 31.4962 188.33 31.8807 188.936 32.1305C189.542 32.3803 190.197 32.4888 190.852 32.4476C191.431 32.4956 192.013 32.4113 192.553 32.201C193.094 31.9908 193.579 31.6602 193.972 31.2346C194.728 30.2331 195.105 28.9982 195.037 27.7473V21.1509C194.026 20.8521 192.977 20.6989 191.922 20.696ZM190.781 33.2058C190.024 33.2595 189.266 33.1368 188.566 32.8472C187.866 32.5576 187.243 32.1092 186.748 31.5379C185.79 30.3047 185.304 28.7727 185.378 27.2159C185.308 26.2431 185.433 25.2662 185.747 24.3422C186.06 23.4181 186.555 22.5655 187.204 21.8339C187.825 21.2282 188.564 20.7546 189.375 20.4418C190.186 20.129 191.052 19.9836 191.922 20.0144C193.106 20.0253 194.283 20.2038 195.418 20.5444C195.488 20.5798 195.546 20.634 195.587 20.7009C195.627 20.7678 195.648 20.8447 195.647 20.9228V27.7473C195.738 29.1868 195.31 30.6114 194.439 31.7646C193.968 32.2512 193.398 32.6317 192.767 32.8803C192.136 33.1289 191.459 33.2399 190.781 33.2058ZM190.781 12.0534C188.015 12.0096 185.287 12.6873 182.866 14.019C180.672 15.2568 178.857 17.0647 177.616 19.2493C176.346 21.55 175.69 24.1364 175.712 26.761C175.676 29.092 176.089 31.4083 176.93 33.5841C177.651 35.5028 178.826 37.2205 180.355 38.5919C181.352 39.4113 182.485 40.0528 183.702 40.4879C186.317 41.4709 189.215 41.389 191.769 40.2598C193.13 39.6644 194.328 38.755 195.265 37.607C195.341 37.4554 195.493 37.4554 195.645 37.4554C195.798 37.4554 195.873 37.607 195.949 37.7587L196.406 40.3363H205.076V0.760894H195.567V12.3609C195.566 12.4195 195.552 12.4772 195.526 12.5297C195.499 12.5822 195.461 12.6281 195.415 12.6641C195.326 12.7238 195.218 12.7504 195.111 12.7392C194.579 12.5834 193.976 12.4318 193.215 12.2802C192.413 12.1261 191.598 12.0502 190.781 12.0534ZM187.737 42C186.264 42.0073 184.8 41.7766 183.402 41.317C182.085 40.8781 180.869 40.1825 179.825 39.2707C178.219 37.8149 176.992 35.9941 176.248 33.9639C175.381 31.6874 174.943 29.2718 174.955 26.8375C174.913 24.0824 175.595 21.3642 176.933 18.9517C178.234 16.6321 180.156 14.7166 182.486 13.4181C185.02 12.0173 187.883 11.3125 190.781 11.376C191.671 11.3737 192.56 11.45 193.438 11.6041C193.97 11.6793 194.503 11.8309 194.96 11.9074V0.383919C194.957 0.333325 194.965 0.28262 194.983 0.235167C195 0.187713 195.028 0.144598 195.064 0.108684C195.1 0.0727689 195.144 0.0448747 195.191 0.0268544C195.239 0.00883412 195.29 0.0010995 195.341 0.00416275H205.625C205.676 0.0010995 205.727 0.00883412 205.775 0.0268544C205.822 0.0448747 205.866 0.0727689 205.902 0.108684C205.937 0.144598 205.965 0.187713 205.983 0.235167C206.001 0.28262 206.009 0.333325 206.006 0.383919V40.8663C206.009 40.9169 206.001 40.9676 205.983 41.015C205.965 41.0625 205.937 41.1056 205.902 41.1415C205.866 41.1774 205.822 41.2053 205.775 41.2233C205.727 41.2414 205.676 41.2491 205.625 41.246H196.257C196.173 41.2315 196.094 41.1961 196.027 41.1431C195.961 41.0901 195.909 41.0212 195.876 40.9428L195.496 38.82C194.573 39.7934 193.46 40.5675 192.224 41.0944C190.786 41.6357 189.27 41.9429 187.734 42.0042" fill="#FCD400"/>
</g>
<g id="Group 88">
<path id="Path 54" d="M64.303 40.787V0.378357H54.0296V12.3567C53.3783 12.1715 52.7179 12.0197 52.0509 11.9018C51.1983 11.741 50.3318 11.665 49.464 11.6751C46.6476 11.6147 43.865 12.2946 41.3972 13.6462C39.1511 14.9355 37.2872 16.7921 35.9941 19.0282C34.6901 21.3955 34.0343 24.0622 34.0924 26.761C34.056 29.1411 34.4687 31.5069 35.3089 33.7358C36.0262 35.7164 37.2276 37.4885 38.8047 38.8924C39.8421 39.752 41.0261 40.4196 42.3005 40.8635C43.6457 41.3287 45.0615 41.5593 46.4856 41.5451C47.932 41.5281 49.3597 41.2186 50.682 40.6354C52.1289 40.0405 53.3899 39.0718 54.3344 37.8296L54.8671 40.7119H64.303V40.787ZM52.8885 31.467C52.4705 31.9317 51.9519 32.296 51.3718 32.5324C50.7917 32.7688 50.1652 32.8711 49.5396 32.8316C48.8326 32.8696 48.1259 32.7536 47.4687 32.4917C46.8116 32.2298 46.2198 31.8283 45.7347 31.3153C44.8471 30.1354 44.3926 28.6886 44.4469 27.2159C44.3283 25.3356 44.957 23.4842 46.1976 22.0607C46.7889 21.4836 47.4916 21.0316 48.2633 20.732C49.0349 20.4324 49.8596 20.2915 50.6876 20.3177C51.8265 20.2904 52.961 20.47 54.0351 20.8477V27.6638C54.1266 29.0276 53.7194 30.3783 52.8885 31.467ZM79.3712 40.787V27.974C79.3712 23.0469 81.5778 20.6209 86.0678 20.6209C87.0681 20.6351 88.0635 20.762 89.035 20.9993L90.4054 12.2816C89.9099 12.111 89.4004 11.9839 88.8826 11.9018C88.1763 11.8056 87.4645 11.7549 86.7516 11.7502C85.2154 11.6997 83.7012 12.1234 82.4168 12.9632C81.2265 13.7209 80.1936 14.6989 79.374 15.8441L78.9853 12.2816H69.0978V40.787H79.3712ZM93.4495 34.2671C94.6961 36.5578 96.5694 38.4504 98.8526 39.7256C101.275 41.1275 104.04 41.8361 106.843 41.7733C109.645 41.8359 112.41 41.1273 114.833 39.7256C117.078 38.4261 118.921 36.5379 120.16 34.2671C121.464 31.8998 122.12 29.2331 122.062 26.5343C122.102 23.8375 121.447 21.1754 120.16 18.8014C118.92 16.5312 117.077 14.6431 114.833 13.343C112.41 11.9418 109.645 11.2336 106.843 11.2967C104.043 11.2534 101.283 11.9607 98.8526 13.3443C96.6027 14.6624 94.7396 16.5445 93.4495 18.8028C92.1444 21.1698 91.4881 23.8366 91.5464 26.5357C91.5068 29.2327 92.162 31.8934 93.4495 34.2671ZM102.733 31.0079C101.707 29.7445 101.17 28.1576 101.219 26.5343C101.186 24.9122 101.724 23.3297 102.74 22.0607C103.234 21.459 103.864 20.9811 104.577 20.6651C105.291 20.3491 106.069 20.2039 106.85 20.2412C107.628 20.2198 108.401 20.3721 109.112 20.687C109.823 21.0018 110.454 21.4712 110.959 22.0607C111.987 23.3233 112.527 24.9102 112.481 26.5343C112.514 28.156 111.976 29.7382 110.959 31.0065C110.465 31.608 109.835 32.0858 109.122 32.4018C108.408 32.7177 107.63 32.863 106.85 32.826C106.069 32.8633 105.291 32.7181 104.577 32.4021C103.864 32.0861 103.234 31.6081 102.74 31.0065M137.138 0.378357H126.019V8.41446H137.13L137.138 0.378357ZM136.681 12.2816H126.399V40.787H136.673L136.681 12.2816ZM171.222 40.787V0.378357H160.949V12.3567C160.298 12.1717 159.637 12.0198 158.97 11.9018C158.117 11.741 157.25 11.665 156.382 11.6751C153.566 11.6147 150.784 12.2946 148.317 13.6462C146.071 14.9355 144.207 16.7921 142.914 19.0282C141.609 21.3954 140.953 24.0621 141.01 26.761C140.974 29.1413 141.387 31.5072 142.228 33.7358C142.946 35.7162 144.147 37.4882 145.724 38.8924C146.762 39.7516 147.946 40.4192 149.22 40.8635C150.565 41.3287 151.981 41.5593 153.405 41.5451C154.848 41.5269 156.272 41.2174 157.59 40.6354C159.037 40.0408 160.298 39.0721 161.243 37.8296L161.775 40.7119H171.213L171.222 40.787ZM159.808 31.467C159.39 31.9317 158.872 32.296 158.292 32.5324C157.712 32.7688 157.086 32.8711 156.46 32.8316C155.754 32.8696 155.047 32.7536 154.39 32.4917C153.732 32.2298 153.141 31.8283 152.656 31.3153C151.724 30.1603 151.262 28.6991 151.362 27.2215C151.244 25.3414 151.872 23.4903 153.111 22.0662C153.703 21.4893 154.406 21.0375 155.177 20.7379C155.949 20.4384 156.774 20.2973 157.601 20.3232C158.741 20.2961 159.876 20.4757 160.95 20.8532V27.6694C161.042 29.0309 160.637 30.3795 159.808 31.467Z" fill="#FCD400"/>
</g>
<g id="Group 89">
<path id="Path 55" d="M16.9699 20.696C16.1998 20.6615 15.4308 20.7851 14.7108 21.0592C13.9907 21.3332 13.3351 21.7518 12.7848 22.2888C11.6279 23.6322 11.0532 25.3768 11.1865 27.1408C11.1091 28.5335 11.5418 29.9069 12.4044 31.0065C12.8379 31.4962 13.3783 31.8807 13.9843 32.1305C14.5902 32.3803 15.2456 32.4888 15.9002 32.4476C16.4788 32.4956 17.0607 32.4113 17.6015 32.201C18.1422 31.9908 18.6274 31.6602 19.0199 31.2346C19.7764 30.2331 20.1537 28.9982 20.0854 27.7473V21.1509C19.0741 20.8521 18.0249 20.6989 16.9699 20.696ZM15.752 33.2058C14.9955 33.2595 14.2369 33.1365 13.5367 32.8467C12.8365 32.5569 12.2141 32.1082 11.7193 31.5365C10.7613 30.3033 10.2756 28.7713 10.3489 27.2145C10.2794 26.242 10.405 25.2654 10.7186 24.3417C11.0321 23.4179 11.5272 22.5655 12.1751 21.8339C12.7967 21.2282 13.5355 20.7545 14.3468 20.4417C15.1581 20.129 16.0249 19.9836 16.8944 20.0144C18.0786 20.0312 19.2548 20.2095 20.3902 20.5444C20.46 20.58 20.5183 20.6343 20.5586 20.7012C20.5988 20.7681 20.6195 20.8448 20.6182 20.9228V27.7473C20.7062 29.1878 20.2749 30.6123 19.4016 31.7646C18.9412 32.2621 18.374 32.65 17.7421 32.8995C17.1103 33.149 16.4301 33.2537 15.752 33.2058ZM15.752 12.0534C12.9866 12.01 10.2579 12.6876 7.83754 14.019C5.64351 15.2573 3.82871 17.0651 2.58687 19.2494C1.31793 21.5504 0.663182 24.1366 0.685156 26.761C0.648513 29.0918 1.06148 31.408 1.90169 33.5841C2.62234 35.5028 3.79697 37.2205 5.32617 38.5919C6.3242 39.4114 7.45724 40.0528 8.67514 40.4879C11.2895 41.4709 14.188 41.389 16.742 40.2598C18.1027 39.6646 19.3011 38.7552 20.2378 37.6071C20.3147 37.4554 20.4657 37.4554 20.6182 37.4554C20.7706 37.4554 20.8475 37.6071 20.923 37.7587L21.3788 40.3363H30.0596V0.760894H20.6993V12.3609C20.6979 12.4195 20.6835 12.477 20.6572 12.5295C20.6308 12.5819 20.5931 12.6279 20.5468 12.6641C20.4572 12.7238 20.3493 12.7504 20.242 12.7392C19.7093 12.5876 19.101 12.436 18.3403 12.2844C17.4864 12.129 16.6201 12.0517 15.752 12.0534ZM12.7848 42C11.3122 42.0073 9.84824 41.7766 8.45001 41.317C7.13288 40.8781 5.91689 40.1825 4.87311 39.2707C3.26769 37.815 2.04044 35.9941 1.29622 33.9639C0.429663 31.6874 -0.00877293 29.2718 0.00277756 26.8375C-0.038891 24.0824 0.643133 21.3642 1.9814 18.9517C3.28264 16.6321 5.20468 14.7166 7.53411 13.4181C10.0679 12.0173 12.9308 11.3125 15.8289 11.376C16.7196 11.3738 17.6086 11.4502 18.4857 11.6041C19.0171 11.6793 19.5498 11.8309 20.0071 11.9074V0.383919C20.0038 0.333325 20.0114 0.28262 20.0294 0.235167C20.0473 0.187713 20.0752 0.144598 20.1111 0.108684C20.1471 0.0727689 20.1904 0.0448747 20.238 0.0268544C20.2856 0.00883412 20.3366 0.0010995 20.3874 0.00416275H30.5923C30.6432 0.0010995 30.6942 0.00883412 30.7418 0.0268544C30.7894 0.0448747 30.8327 0.0727689 30.8686 0.108684C30.9046 0.144598 30.9325 0.187713 30.9504 0.235167C30.9684 0.28262 30.976 0.333325 30.9727 0.383919V40.8663C30.976 40.9169 30.9684 40.9676 30.9504 41.015C30.9325 41.0625 30.9046 41.1056 30.8686 41.1415C30.8327 41.1774 30.7894 41.2053 30.7418 41.2233C30.6942 41.2414 30.6432 41.2491 30.5923 41.246H21.232C21.148 41.2315 21.0691 41.1961 21.0026 41.1431C20.9361 41.0901 20.8842 41.0212 20.8517 40.9428L20.4657 38.8159C19.5437 39.7895 18.4298 40.5638 17.1937 41.0902C15.7824 41.6309 14.2917 41.9382 12.7806 42" fill="#FCD400"/>
</g>
</g>
</g>
</g>
</g>
</g>
<defs>
<clipPath id="clip0_1_9">
<rect width="206" height="42" fill="white"/>
</clipPath>
</defs>
</svg>
